# xmcd
#
# Track frame offsets:
#	150
#	27900
#	43906
#	63009
#	76974
#	97385
#	116401
#	142003
#	157279
#	179333
#	195408
#	216249
#	233740
#	257692
#
# Disc length: 3713
#
# Revision: 1
# Processed by: cddbd v1.5.1PL0 Copyright (c) Steve Scherf et al.
# Submitted via: Feurio! 1.65 - http://www.feurio.com
# Normalized: r0:DSETVAR1
#
DISCID=c80e7f0e
DTITLE=Various Artist - Real Steppin' Vol #3
DYEAR=2000
DGENRE=blues
TTITLE0=Amel Larrieux - Get Up (remix)
TTITLE1=Brian Culbertson - Gettin' Over You
TTITLE2=Kevon Edmonds - Love Will Be Waiting
TTITLE3=Chris Gains - Lost In You
TTITLE4=Brecker Brothers - When It Was
TTITLE5=Smone -N- Function - Seven Thirty
TTITLE6=Jazz Masters - Good Lovin'
TTITLE7=Richmond Extension - Everything's Comin' Up Love
TTITLE8=Tower Of Power - Somedays Were Meant For Rain
TTITLE9=Case - Think Of You
TTITLE10=Paul Hardcastle - Money
TTITLE11=Victor Fields - Black Orpheus
TTITLE12=Braxton Brothers - Can We Try Again
TTITLE13=Paul Russo - I Can Show You Love
EXTD=
EXTT0=
EXTT1=
EXTT2=
EXTT3=
EXTT4=
EXTT5=
EXTT6=
EXTT7=
EXTT8=
EXTT9=
EXTT10=
EXTT11=
EXTT12=
EXTT13=
PLAYORDER=
